<?xml version="1.0" encoding="UTF-8" standalone="no"?><svg xmlns:svg="http://www.w3.org/2000/svg" xmlns="http://www.w3.org/2000/svg" xmlns:xlink="http://www.w3.org/1999/xlink" version="1.0" width="32px" height="32px" viewBox="0 0 128 128" xml:space="preserve"><g><path d="M56.9-.1h15.17V37H56.9V-.1z" fill="#ffe058"/><path d="M56.9-.1h15.17V37H56.9V-.1z" fill="#fffcee" transform="rotate(30 64 64)"/><path d="M56.9-.1h15.17V37H56.9V-.1z" fill="#fffcee" transform="rotate(60 64 64)"/><path d="M56.9-.1h15.17V37H56.9V-.1z" fill="#fffcee" transform="rotate(90 64 64)"/><path d="M56.9-.1h15.17V37H56.9V-.1z" fill="#fff9df" transform="rotate(120 64 64)"/><path d="M56.9-.1h15.17V37H56.9V-.1z" fill="#fff6d0" transform="rotate(150 64 64)"/><path d="M56.9-.1h15.17V37H56.9V-.1z" fill="#fff3c0" transform="rotate(180 64 64)"/><path d="M56.9-.1h15.17V37H56.9V-.1z" fill="#fff1b2" transform="rotate(210 64 64)"/><path d="M56.9-.1h15.17V37H56.9V-.1z" fill="#ffeea3" transform="rotate(240 64 64)"/><path d="M56.9-.1h15.17V37H56.9V-.1z" fill="#ffeb94" transform="rotate(270 64 64)"/><path d="M56.9-.1h15.17V37H56.9V-.1z" fill="#ffe885" transform="rotate(300 64 64)"/><path d="M56.9-.1h15.17V37H56.9V-.1z" fill="#ffe676" transform="rotate(330 64 64)"/><animateTransform attributeName="transform" type="rotate" values="0 64 64;30 64 64;60 64 64;90 64 64;120 64 64;150 64 64;180 64 64;210 64 64;240 64 64;270 64 64;300 64 64;330 64 64" calcMode="discrete" dur="1080ms" repeatCount="indefinite"></animateTransform></g></svg>